<svg width="128" height="128" viewBox="0 0 128 128" fill="none" xmlns="http://www.w3.org/2000/svg">
<g clip-path="url(#clip0_575_20)">
<rect width="128" height="128" rx="20" fill="#FFF4E6"/>
<path d="M14 64C14 80.1787 21.6841 94.5627 33.6019 103.702L72.5 75H60L82.5 36.5H67L88.9519 20.6613C81.6084 16.4243 73.0873 14 64 14C36.3858 14 14 36.3858 14 64Z" fill="#FF87AD"/>
<path d="M64 114C91.6142 114 114 91.6142 114 64C114 45.4731 103.923 29.2997 88.9519 20.6613L67 36.5H82.5L60 75H72.5L33.6019 103.702C42.0256 110.161 52.5645 114 64 114Z" fill="#1616BC"/>
<path d="M105.123 9.10847C104.315 9.76263 103.252 10.6153 102.435 11.2521C102.18 11.4518 102.299 11.3372 102.122 11.4738C101.775 11.7404 101.459 12.0004 101.115 12.2617C101 12.348 101.123 12.2133 101.003 12.3039C100.345 12.7996 99.7342 13.2849 99.07 13.7904C95.7949 16.2754 92.5638 18.7019 89.2251 21.1846C88.125 22.0044 86.7411 22.9362 85.6309 23.8191C85.5015 23.9224 85.6328 23.9359 85.612 23.9608C85.2851 24.3513 85.3093 24.1044 85.0372 24.2781C83.9579 24.9682 82.8097 25.8076 81.8467 26.5768C81.4372 26.9042 81.9773 26.7554 81.4883 26.9789C81.4544 26.9944 81.4964 26.8256 81.3745 26.902C81.0978 27.0752 80.6139 27.4606 80.4062 27.6042C80.0055 27.8802 79.9415 27.929 79.5715 28.2027C79.0653 28.5762 78.4297 28.9738 77.9035 29.3979C77.7915 29.4889 78.0176 29.4763 77.8459 29.631C77.6741 29.7859 77.1806 30.1416 76.9984 30.2396C76.8163 30.3378 76.8272 30.2036 76.7846 30.2065C76.4296 30.225 76.0232 30.8644 75.9552 30.9249C74.6996 32.0059 73.469 32.7196 72.2223 33.64C71.2768 34.34 70.2997 35.1355 69.3953 35.7949C68.7206 36.2861 68.0931 36.7065 67.4639 37.143L67 35.7071C67.4578 35.7155 67.9194 35.7195 68.4042 35.7091C68.5409 35.7064 68.3807 35.5219 68.5477 35.5178C70.3218 35.4746 72.0835 35.4721 73.8499 35.5891C74.0271 35.6011 73.7988 35.7769 73.9758 35.7996C75.0594 35.9321 76.774 36.2842 77.4176 35.4957C78.1516 35.5198 79.0427 35.5436 79.6993 35.7003C80.1227 35.8014 79.7115 36.0041 80.2316 35.916C80.3489 35.8964 80.1964 35.7213 80.3723 35.7049C81.0611 35.6404 81.8093 35.6813 82.5 35.6093L84.0389 35.5871L83.269 36.9494C83.2474 36.997 83.2266 37.0446 83.2067 37.0923C83.1489 37.2312 83.3079 37.2769 83.3119 37.3282C83.3381 37.7545 82.7087 38.071 82.6195 38.168C81.9471 38.911 81.6603 39.5728 81.1991 40.3615C81.092 40.5445 81.4083 40.439 81.3122 40.6192C80.8116 41.5521 80.2484 42.4925 79.6438 43.3391C79.5089 43.5272 79.4491 43.2468 79.376 43.3316C79.0555 43.7067 79.3157 43.9835 79.0148 44.347C78.9517 44.4238 78.8366 44.2925 78.8119 44.2988C78.4249 44.3973 78.652 44.8121 78.6238 44.8791C78.273 45.7303 77.6136 46.0201 77.2228 46.8121C77.1765 46.9071 77.4789 46.8086 77.3377 47.0692C76.3985 48.8064 75.3009 50.5827 74.1686 52.1838C73.9928 52.4329 73.9615 52.1634 73.9346 52.1698C73.5071 52.2808 73.7682 52.6669 73.7321 52.7605C73.4375 53.4934 72.7645 53.9455 72.9313 54.6579C71.4741 56.8817 70.2746 59.2449 68.7994 61.4374C68.436 61.9772 68.056 62.5068 67.6512 63.0213C67.6256 63.0547 67.4826 62.8845 67.4323 62.9515C66.8249 63.7576 67.203 63.7556 67.2113 64.5286C67.213 64.7231 66.542 64.9196 66.4889 64.9408C66.2943 65.0168 66.1116 64.7132 66.0623 64.7479C65.6631 65.0405 66.5881 65.4954 66.2787 66.0239C66.2676 66.0396 66.145 65.8748 66.1028 65.9096C65.9711 66.0176 65.956 66.1922 65.8208 66.2942C65.5101 66.5269 65.0155 66.3854 64.9901 67.0033C64.9877 67.0819 65.5431 67.2842 65.2428 67.7421C65.1227 67.9243 64.6431 68.7617 64.4738 68.976C64.3047 69.19 64.2374 68.9359 64.2207 68.9484C63.6397 69.4518 63.6909 69.1621 63.1919 69.2928C62.6944 69.4244 63.4934 69.7742 63.5017 69.9512C63.5096 70.1283 63.0646 70.4862 62.9376 70.5639C62.8105 70.6414 62.7911 70.4408 62.6979 70.5212C62.0831 71.0569 62.8967 71.0302 62.8861 71.319C62.8619 72.0001 62.0736 72.0809 61.7424 72.5239C61.6528 72.6437 61.8393 72.6122 61.784 72.7332C61.5634 73.2117 61.2331 73.3839 61.088 73.9901C61.0643 74.0893 61.1481 74.6969 60.7493 74.8254C60.6922 74.8433 60.6199 74.6555 60.4765 74.8306C60.4078 74.9143 60.3268 75.0228 60.244 75.1426L60 74.7174C60.3078 74.7408 60.6637 74.7455 60.9076 74.7103C61.1725 74.6719 60.8688 74.4138 61.2023 74.4945C61.3506 74.5305 61.0759 74.6807 61.3543 74.7355C61.6313 74.7903 62.3395 74.7843 62.609 74.7794C62.878 74.7744 62.7308 74.5803 62.7525 74.5672C62.8841 74.4925 63.4003 74.4006 63.446 74.401C65.7471 74.3857 67.8692 74.7106 70.1097 74.6105C70.2855 74.6031 70.1684 74.4066 70.1952 74.4035C70.7971 74.3237 70.3226 74.8431 70.743 75.0174C70.6823 74.6206 70.9305 74.6929 71.3545 74.6506C71.5588 74.6299 71.4475 74.4768 71.4662 74.4612C71.7692 74.2306 71.9802 74.5308 72.0345 74.5919C72.1954 74.7724 72.3676 74.6379 72.5 74.6551L73.5456 74.6467L72.7048 75.2776C72.6759 75.2936 72.6436 75.3007 72.6041 75.2929C72.4061 75.2544 72.5282 74.8908 72.2028 75.1347C72.194 75.3148 72.6544 75.4304 72.4405 75.6605C71.6327 76.5277 69.7083 77.5818 68.9367 78.1137C68.1657 78.643 67.9367 78.8412 67.4689 79.1245C66.6241 79.6367 67.0672 79.6299 66.6426 80.0834C66.2161 80.5374 66.0869 79.8605 65.9362 79.8047C65.7872 79.7484 65.7931 79.9153 65.663 79.9202C65.5333 79.9249 65.6658 79.7136 65.447 79.8417C65.2284 79.9704 64.8144 80.5709 64.824 80.7345C64.8452 81.0815 65.278 81.1446 64.6747 81.4512C64.6399 81.4687 64.6452 81.2661 64.517 81.3399C63.5018 81.9304 62.5195 82.6419 61.5177 83.2482C61.3799 83.3314 61.3938 83.1088 61.3126 83.1559C60.4665 83.6462 60.9166 83.671 60.674 84.2393C60.5211 83.8307 60.1315 83.7988 59.5385 84.2375C59.1817 84.5008 59.3502 84.6005 59.1945 84.8725C59.1477 84.9541 58.8223 85.0415 58.8264 85.1428C58.838 85.4743 59.2585 85.5465 58.5711 85.8957C58.5407 85.9107 58.5383 85.7284 58.4398 85.7892C57.8034 86.1819 57.8985 86.461 57.2657 86.9601C56.7695 87.351 55.7615 87.8764 55.1651 88.279C54.9236 87.9263 54.4363 88.4096 54.3852 88.8042C54.0011 89.0695 53.6032 89.3791 53.2156 89.6133C53.0823 89.6941 53.0944 89.5388 53.071 89.5401C52.7104 89.5568 52.709 89.8965 52.6337 89.9641C51.8121 90.6891 50.9768 91.0548 50.2482 91.8219C50.2225 91.8494 50.3302 92.0963 49.9906 92.1051C49.9684 92.1053 50.1754 91.8064 49.774 92.0877C49.3718 92.3682 48.5459 92.805 48.0657 93.3002C47.9497 93.4203 47.731 93.8253 47.3682 93.8967C47.3197 93.906 47.3176 93.8209 47.2426 93.8276C47.0017 93.8512 47.0552 94.1147 46.7354 94.0927C46.4155 94.0705 45.9198 94.2544 45.4514 94.7754C45.4364 94.7918 45.4158 95.0375 45.2401 95.1628C44.9597 95.363 44.5438 95.623 44.2551 95.8376C44.1169 95.9404 44.271 95.9635 44.2481 95.9828C43.3501 96.7161 42.6275 97.1249 41.6063 97.8303C41.4196 97.9602 40.971 98.453 40.5545 98.6301C40.099 98.8269 40.2213 98.1559 39.4023 98.9174C39.0744 99.2279 38.9441 100.007 38.1295 100.259C36.9131 101.242 35.6791 102.002 34.4711 103.003C34.4169 103.048 34.3081 103.276 34.1732 103.372C33.9731 103.515 33.8325 103.551 33.6892 103.653C33.088 104.077 32.5714 104.511 31.9957 104.925C31.7774 105.082 31.8251 104.988 31.5654 105.177C31.3063 105.367 31.1688 105.541 30.802 105.776C30.5246 105.953 30.1949 106.06 29.8402 106.313C29.8895 106.408 29.648 106.585 29.2353 106.922C29.156 106.987 29.2644 106.949 29.2278 106.981C29.0791 107.111 28.9157 107.197 28.7756 107.322C28.7415 107.352 28.7583 107.379 28.7313 107.405C28.5017 107.626 28.0393 107.877 27.9612 107.922C27.6597 108.091 27.5519 108.215 27.3303 108.357C27.1099 108.501 27.4146 108.253 27.1627 108.428C26.6411 108.792 25.9889 109.284 25.4702 109.669C25.2634 109.823 25.4189 109.737 25.3896 109.76C24.9637 110.08 24.5189 110.385 24.3026 110.589C23.9506 110.734 24.0492 110.787 23.4237 111.222C23.3744 111.256 23.2946 111.277 23.4756 111.134C23.6562 110.991 23.9425 110.79 24.1921 110.59C24.2518 110.544 24.5703 110.245 24.6148 110.206C24.9672 109.903 25.0679 109.929 25.0905 109.919C25.3431 109.793 25.7324 109.428 25.8398 109.339C26.3358 108.936 26.7766 108.62 27.1907 108.283C27.4615 108.062 27.4375 107.971 27.6552 107.805C28.3773 107.249 28.7178 107.174 29.3224 106.547C29.4516 106.412 29.2343 106.426 29.8118 106.097C29.8475 106.076 30.2909 105.852 30.4791 105.63C30.5027 105.602 30.4784 105.571 30.5134 105.54C30.7482 105.329 30.9325 105.226 31.193 105.002C31.4535 104.779 31.7622 104.504 32.079 104.276C32.2696 104.137 32.5598 104.022 32.6621 103.971C32.9519 103.827 33.16 103.535 33.3631 103.478C33.569 103.422 33.33 103.753 33.779 103.483C33.716 103.365 33.6707 103.229 33.6158 103.102C34.5193 102.402 35.4358 101.751 36.339 101.044C36.4507 100.956 36.2854 100.976 36.4036 100.88C36.902 100.473 37.3829 100.179 37.8941 99.7486C38.2896 99.4154 38.6755 98.9853 39.0839 98.63C39.468 98.5953 40.0592 98.0479 40.5303 97.7066C40.6955 97.5873 40.7203 97.6439 40.8467 97.5712C41.3233 97.2963 41.0009 97.2908 41.1004 97.1732C41.5256 96.6665 41.8454 97.0073 42.4427 96.5399C42.4749 96.5159 42.7113 96.0093 42.7545 95.9541C43.0311 95.6053 42.8647 95.9835 43.0892 95.8349C43.4991 95.5636 43.8088 95.4088 44.2184 94.9937C44.338 94.8729 44.5538 94.4868 44.892 94.3958C44.9365 94.3838 44.9728 94.4729 45.0034 94.4563C45.5543 94.15 45.3923 93.9028 45.614 93.6016C45.8354 93.2998 46.3952 93.1291 46.5211 93.1105C46.848 93.0587 46.3825 93.3019 46.3791 93.3241C46.3393 93.585 46.6407 93.3155 46.8948 93.142C47.11 93.3587 47.4436 93.0864 47.1576 92.9612C47.1259 92.948 46.9522 93.1158 46.8948 93.142C46.9336 92.7398 47.2815 92.4154 47.8664 92.3288C48.1406 92.2888 48.0498 92.5549 48.6084 92.0616C48.8618 91.8377 48.6275 91.7395 48.8281 91.5105C49.2852 90.9861 50.1108 90.6185 50.6487 90.1682C50.8435 90.0041 50.5712 90.0521 50.7015 89.9361C51.0466 89.6275 51.4269 89.4583 51.765 89.1368C51.7955 89.1075 51.633 89.0599 51.7461 88.9707C52.6012 88.2916 53.4084 87.7851 54.3151 87.0948C54.7532 86.7614 55.4863 86.0971 55.9487 85.7633C56.7491 85.1833 57.8498 84.627 58.4901 84.0726C58.9075 83.7108 58.7177 83.657 58.8411 83.4269C59.0778 82.9806 59.9418 82.7941 60.064 82.777C60.0679 82.7766 59.713 83.0938 59.9633 83.0072C60.1827 83.0568 60.0603 82.7809 60.064 82.777C60.1433 82.7643 60.9194 82.2217 61.0506 82.0829C61.1218 82.0074 60.9842 81.9172 61.023 81.8801C61.9474 81.0007 62.9292 80.1956 63.9955 79.4783C64.0154 79.4672 64.096 79.6338 64.1416 79.606C64.782 79.222 65.0288 78.755 65.4364 78.2749C65.8442 77.7953 66.2564 77.5353 66.7369 77.5753C67.0812 77.2631 67.6952 76.9777 68.0522 76.8185C68.4092 76.6593 68.2312 76.3283 68.2536 76.302C68.9485 75.479 69.5575 75.2842 70.4452 74.6564C70.7316 74.4541 71.185 74.0842 71.5785 73.7512L72.5 76.552C72.2561 76.5683 72.0279 76.5859 71.8479 76.6015C71.4057 76.6408 71.1392 76.5528 70.7317 76.6155C70.6766 76.6239 70.7323 76.7967 70.7155 76.8035C70.2607 77.0169 70.4793 76.5897 70.3854 76.5148C70.0449 76.2424 69.8346 76.0957 69.2522 76.2309C69.1179 76.2615 68.7266 76.8828 68.4817 76.9224C68.1634 76.9722 68.2835 76.7485 67.9502 76.806C67.9217 76.8107 67.9276 76.948 67.7219 76.9444C66.7668 76.9292 65.7256 76.8592 64.7332 76.8827C64.5976 76.8854 64.7714 77.1055 64.5756 77.1132C63.6565 77.1494 62.6491 77.1518 61.7537 77.0545C61.5333 77.0298 61.6715 76.871 61.6236 76.8246C61.3299 76.5435 60.9134 76.9585 60.8447 76.9671C60.5524 77.0048 60.2724 77.0243 60 77.0319L56.4427 77.0027L58.2457 73.9748C58.8487 72.8732 59.591 72.0422 60.149 70.778C60.1855 70.694 60.1459 69.8599 60.6357 69.7844C60.6685 69.7788 61.1651 69.7111 61.068 69.3378C61.0618 69.3146 60.7894 69.3784 60.9754 69.0978C61.1614 68.8173 61.3138 68.2799 61.7393 67.9936C61.8736 67.9027 62.3899 67.8041 62.3352 67.2668C62.3305 67.2312 62.0485 66.2864 62.5965 66.3282C62.6864 66.3356 63.1185 66.6354 63.1478 66.0494C63.1528 65.9371 62.9611 66.0343 63.0295 65.7707C63.1337 65.3665 63.5223 64.9774 63.5681 64.4324C63.5756 64.3371 63.4513 63.84 63.8329 63.7226C63.8927 63.7042 64.0004 63.8685 64.0954 63.7442C64.548 63.1537 64.8353 62.4264 65.318 61.8403C65.4886 61.6326 65.6659 61.8934 65.8712 61.6929C66.0765 61.4923 66.421 61.0478 66.4547 60.7321C66.4885 60.4163 65.9372 60.4606 66.1247 60.0676C66.1488 60.0172 66.1732 59.967 66.1979 59.917C67.0095 58.272 68.1445 56.8343 69.1034 55.2774C69.2501 55.0395 68.993 55.1575 69.1991 54.8011C69.9579 53.4865 71.1621 51.1549 72.127 50.1932C72.899 49.4221 72.402 50.6698 72.9075 50.0312C73.1506 49.7225 72.9177 49.0988 72.9517 49.0098C73.2769 48.137 73.7997 47.7038 74.1609 46.9582C74.2355 46.8042 73.9705 46.8431 74.0361 46.7133C74.2586 46.269 74.6052 45.868 74.8331 45.4524C74.935 45.2657 74.7787 45.2198 74.8895 45.058C75.153 44.6699 75.4225 44.348 75.7831 44.0303C75.8159 44.0013 75.8408 44.3406 76.0242 44.0467C76.3207 43.5709 76.8006 43.0457 77.0027 42.417C77.0621 42.2302 76.7602 42.0451 77.1824 41.8155C77.2708 41.7672 77.5805 42.0757 77.5097 41.4795C77.4978 41.3793 77.4872 40.441 77.9639 40.2622C78.0895 40.2149 78.5227 40.1601 78.5939 39.9353C78.6026 39.9042 78.3764 39.9168 78.4586 39.744C78.7512 39.1369 79.1307 38.5431 79.4363 37.9222C79.5176 37.7563 79.2107 37.8949 79.3375 37.6508C79.6861 36.9796 80.2163 36.197 80.6493 35.5945C80.8093 35.3725 80.8463 35.6121 80.8712 35.6037C80.8918 35.5969 80.9108 35.5894 80.9283 35.5815L82.5 38.3204C82.2102 38.1161 82.0355 38.4488 81.9352 38.4676C81.2774 38.5867 80.7765 38.4058 80.1701 38.4422C80.0028 38.4516 80.1214 38.6275 80.0881 38.6425C79.7427 38.7879 80 38.4802 79.7813 38.4423C79.1688 38.3353 78.4859 38.3391 77.8664 38.3507C77.6389 38.3552 77.8946 38.5575 77.6904 38.5589C76.4818 38.571 75.2253 38.5261 74.0458 38.3979C73.8237 38.3734 73.9634 38.2293 73.9171 38.1949C73.5981 37.9553 73.1305 38.2664 73.0229 38.294C72.5337 38.4222 72.3437 38.2899 71.9117 38.3054C70.3932 38.3599 68.6183 38.2994 67 38.2277L61.633 38.1636L65.9891 35.099C66.5171 34.7526 67.0268 34.4217 67.4954 34.1161C69.6726 32.6971 71.4012 31.6503 73.4257 30.2254C73.5546 30.1351 73.3318 30.0976 73.4419 30.0184C74.8685 29.0029 76.3293 28.0814 77.7588 27.0639C77.8764 26.9808 77.6261 26.9887 77.8125 26.8521C78.1944 26.5713 78.6981 26.2431 79.1202 26.0091C79.3259 25.8946 79.13 26.159 79.3354 26.0415C79.8135 25.7678 80.3047 25.4449 80.7597 25.1137C80.9533 24.9727 80.5802 25.0732 80.8379 24.8984C82.5915 23.7048 84.3195 22.5407 86.1792 21.4561C86.3069 21.382 86.535 21.4779 86.77 21.2699C86.7562 21.2105 86.7161 21.1571 86.6891 21.1021C89.238 19.3592 91.8192 17.7152 94.3992 16.0006C94.5081 15.9286 94.279 15.9965 94.4902 15.8573C95.7114 15.0506 96.8935 14.2619 98.1722 13.4776C98.299 13.3996 98.2859 13.5116 98.6415 13.2569C98.7041 13.2119 99.2452 12.8359 99.3776 12.7284C99.3955 12.7137 99.2746 12.7515 99.4513 12.6336C100.479 11.949 101.565 11.2453 102.6 10.5749C102.767 10.4666 102.602 10.6005 102.721 10.5231C103.561 9.97116 104.464 9.35647 105.266 8.82815C105.802 8.47261 105.61 8.61272 105.894 8.42326C105.934 8.39629 106.26 8.16853 106.277 8.15745C106.321 8.12856 106.169 8.24596 106.235 8.20228C106.245 8.19499 106.5 8.00005 106.5 8C106.5 8 106.5 8 106.5 8C106.5 8.00002 106.478 8.01693 106.421 8.0609C106.404 8.07428 106.098 8.31107 106.024 8.37082C105.972 8.41242 106.068 8.34081 105.963 8.42567C105.857 8.51093 105.739 8.60026 105.564 8.74123C105.39 8.8827 105.472 8.8269 105.123 9.10847ZM69.661 76.1033C70.0515 76.0371 69.6997 75.4725 69.4883 75.8299C69.4785 75.8479 69.6411 76.1071 69.661 76.1033ZM35.5504 101.917C35.9896 101.734 36.1365 101.4 35.8223 101.523C35.51 101.649 35.4176 101.974 35.5504 101.917ZM31.7725 104.869C32.2474 104.603 32.1382 104.311 31.7155 104.713C31.6909 104.736 31.7449 104.885 31.7725 104.869ZM104.599 9.33372C104.603 9.33133 104.837 9.16737 104.843 9.16309C104.962 9.0679 104.492 9.39331 104.599 9.33372ZM28.0028 107.77C28.1536 107.69 28.5246 107.375 28.3367 107.474C28.1862 107.554 27.816 107.87 28.0028 107.77ZM61.4262 72.3562C61.4384 72.3569 61.5503 72.1849 61.4949 72.1573C61.3161 72.069 61.2209 72.3437 61.4262 72.3562ZM21.5265 112.607C22.4797 111.887 23.0934 111.5 22.0347 112.255C21.8438 112.393 22.4407 111.95 22.1966 112.125C21.753 112.447 21.4627 112.667 21.0083 112.994C20.9274 113.055 21.473 112.649 21.5281 112.606C21.5276 112.606 21.527 112.606 21.5265 112.607ZM70.296 76.6211C70.3069 76.6239 70.5402 76.4622 70.5405 76.4511C70.5389 76.1902 70.0695 76.5168 70.296 76.6211ZM67.8579 62.2628C67.884 62.2599 68.2333 61.7014 68.2274 61.6731C68.0655 61.1807 67.3585 62.3093 67.8579 62.2628ZM55.1492 88.2765C54.9986 88.5939 54.7091 88.8252 54.3864 88.8036C54.6417 88.6313 54.893 88.4503 55.1492 88.2765Z" fill="#231D1E"/>
<path d="M8.35685 76.4795C1.45288 92.2328 16.0197 112.674 46.8514 90.3627C41.9723 88.3722 34.6992 93.333 26.6179 91.1789C13.991 87.8131 19.6373 70.6896 32.1958 62.1356C44.7542 53.5816 47.9053 29.5836 33.1594 19.9609C21.3627 12.2628 8.82711 5.71308 4.03389 3.4005L-13.8039 48.6854C-10.3496 45.9301 -5.22324 43.1615 2.20895 40.6885C30.7025 31.2075 15.2608 60.7262 8.35685 76.4795Z" fill="url(#paint0_linear_575_20)"/>
<path d="M52.24 42.84C52.24 43.0267 52.1733 43.2133 52.04 43.4C51.9333 43.56 51.7867 43.64 51.6 43.64C51.1467 43.64 50.8533 43.3733 50.72 42.84C50.24 41.0533 49.3467 39.6533 48.04 38.64C46.7333 37.6267 45.1867 37.12 43.4 37.12C40.1733 37.12 37.6 38.2267 35.68 40.44C33.7867 42.6533 32.84 45.48 32.84 48.92C32.84 52.36 33.84 55.4267 35.84 58.12C37.8667 60.8133 40.3867 62.16 43.4 62.16C45.1333 62.16 46.4267 62 47.28 61.68C48.16 61.3333 48.7467 61.0933 49.04 60.96C49.36 60.8 49.76 60.56 50.24 60.24C50.72 59.92 50.9867 59.7467 51.04 59.72C51.52 59.4267 51.8533 59.3867 52.04 59.6C52.2267 59.7867 52.32 59.9733 52.32 60.16C52.32 60.3467 52.2133 60.5467 52 60.76C51.0933 61.7733 50.16 62.5333 49.2 63.04C47.4667 63.9733 45.4 64.44 43 64.44C38.84 64.44 35.4667 63.0667 32.88 60.32C30.2933 57.5733 29 54.12 29 49.96C29 45.8 30.32 42.36 32.96 39.64C35.6 36.92 39.08 35.56 43.4 35.56C45.64 35.56 47.6667 35.8667 49.48 36.48C51.32 37.0933 52.24 37.6933 52.24 38.28V42.84Z" fill="#231D1E"/>
<path d="M59.5462 89.5753L131.174 121.942L150.201 108.151L67.2381 84L59.5462 89.5753Z" fill="url(#paint1_linear_575_20)"/>
<path d="M44.9658 100.144L99.9952 144.541L124.286 126.935L57.111 91.3404L44.9658 100.144Z" fill="url(#paint2_linear_575_20)"/>
<path d="M86.8359 95V68.125H71.8359V65H105.586V68.125H90.5859V95H86.8359Z" fill="#E4E5F3"/>
</g>
<defs>
<linearGradient id="paint0_linear_575_20" x1="47.8815" y1="86.4976" x2="-1.16056" y2="-1.20207" gradientUnits="userSpaceOnUse">
<stop stop-color="#FF87AD"/>
<stop offset="0.487981" stop-color="#EB1052" stop-opacity="0.5"/>
<stop offset="0.975962" stop-color="#FF87AD" stop-opacity="0"/>
</linearGradient>
<linearGradient id="paint1_linear_575_20" x1="80.1868" y1="74.6145" x2="120.237" y2="129.87" gradientUnits="userSpaceOnUse">
<stop stop-color="#1616BC"/>
<stop offset="0.504808" stop-color="#3DEFFF" stop-opacity="0.5"/>
<stop offset="1" stop-color="#1616BC" stop-opacity="0"/>
</linearGradient>
<linearGradient id="paint2_linear_575_20" x1="80.1868" y1="74.6145" x2="120.237" y2="129.87" gradientUnits="userSpaceOnUse">
<stop stop-color="#1616BC"/>
<stop offset="0.504808" stop-color="#3DEFFF" stop-opacity="0.5"/>
<stop offset="1" stop-color="#1616BC" stop-opacity="0"/>
</linearGradient>
<clipPath id="clip0_575_20">
<rect width="128" height="128" rx="20" fill="white"/>
</clipPath>
</defs>
</svg>
